<svg width="800px" height="800px" viewBox="10 9.9 21.2 21.2" xmlns="http://www.w3.org/2000/svg"><path d="M27.873,31.076a2.537,2.557,0,0,1-1.848-4.229l-1.65-2.54a4.234,4.234,0,0,1-3.847-.05l-1.662,1.77a2.161,2.141,0,1,1-1.105-.983l1.593-1.7a4.233,4.233,0,0,1-1.1-2.834,4.007,3.007,0,0,1,.121-.452l-3.8-1.166a2.517,2.517,0,1,1,.558-1.579c0,.067,0,.134-.009.2l3.646,1.119a4.232,4.232,0,0,1,3.092-2.349V13.922a2.068,2.068,0,1,1,1.479,0v2.386A4.242,4.242,0,0,1,25.6,17.72l1.928-1.162a1.75,1.75,0,0,1-.015-.226,1.807,1.807,0,1,1,1.808,1.808,1.786,1.786,0,0,1-1.023-.319l-1.935,1.171a4.22,4.22,0,0,1,.075,1.5v.036l1.057.183a1.806,1.806,0,1,1-.34,1.443l-.987-.173a4.317,4.917,0,0,1-.91,1.436L27.207,26.1a2.519,2.419,0,1,1,.556,4.923Z" style="fill:#fff"/></svg>
